<?xml version="1.0" encoding="utf-8"?>
<!-- Generator: Adobe Illustrator 24.1.0, SVG Export Plug-In . SVG Version: 6.00 Build 0)  -->
<svg version="1.1" id="Layer_1" xmlns="http://www.w3.org/2000/svg" xmlns:xlink="http://www.w3.org/1999/xlink" x="0px" y="0px"
	 viewBox="0 0 538.4 237.6" style="enable-background:new 0 0 538.4 237.6;" xml:space="preserve">
<style type="text/css">
	.st0{fill:#FFFFFF;}
</style>
<g>
	<g>
		<path class="st0" d="M25.7,17.6c2,2.3,3.1,5.4,3.1,9.4c0,0.7,0,1.3,0,1.7H11.3c0.4,1.5,1.1,2.7,2.3,3.6c1.1,0.9,2.5,1.3,4,1.3
			c1.1,0,2.2-0.2,3.3-0.7c1.1-0.4,2-1.1,2.8-1.9l3.7,3.7c-1.2,1.4-2.7,2.4-4.5,3.2C21.1,38.7,19.1,39,17,39c-2.6,0-4.8-0.5-6.7-1.5
			c-1.9-1-3.4-2.5-4.4-4.3c-1-1.9-1.6-4-1.6-6.5c0-2.5,0.5-4.6,1.6-6.5c1.1-1.9,2.5-3.3,4.4-4.4c1.9-1,4.1-1.6,6.5-1.6
			C20.7,14.2,23.7,15.4,25.7,17.6z M22.2,24.6c-0.1-1.6-0.6-2.9-1.5-3.8c-1-1-2.2-1.4-3.8-1.4c-1.5,0-2.8,0.5-3.8,1.4
			c-1,0.9-1.7,2.2-1.9,3.9H22.2z"/>
		<path class="st0" d="M55.4,16.7c1.6,1.7,2.4,3.9,2.4,6.8v15.3h-7V25.5c0-1.5-0.4-2.7-1.3-3.6c-0.9-0.9-2-1.3-3.5-1.3
			c-1.7,0-3.1,0.6-4.1,1.8s-1.5,2.6-1.5,4.5v12h-7V14.5h7v4.2c1.7-3,4.5-4.5,8.4-4.5C51.7,14.2,53.8,15,55.4,16.7z"/>
		<path class="st0" d="M61.8,42.2c0.9,0,1.6-0.3,2.1-0.9c0.5-0.6,0.7-1.5,0.7-2.6V14.5h6.9v25.3c0,2.5-0.7,4.5-2.2,5.9
			c-1.4,1.4-3.4,2.1-6,2.1c-1.9,0-3.5-0.3-5-0.9l1.4-5.1C60.5,42,61.2,42.1,61.8,42.2z"/>
		<path class="st0" d="M96.3,15.8c2,1,3.5,2.5,4.6,4.3c1.1,1.9,1.6,4,1.6,6.5c0,2.4-0.5,4.6-1.6,6.5c-1.1,1.9-2.6,3.3-4.6,4.4
			c-2,1-4.2,1.6-6.8,1.6c-2.6,0-4.9-0.5-6.8-1.6c-2-1-3.5-2.5-4.6-4.4c-1.1-1.9-1.6-4-1.6-6.5c0-2.5,0.5-4.6,1.6-6.5
			c1.1-1.9,2.6-3.3,4.6-4.3c2-1,4.3-1.5,6.8-1.5C92.1,14.2,94.4,14.7,96.3,15.8z M85.1,21.9c-1.1,1.2-1.7,2.8-1.7,4.8
			c0,2,0.6,3.6,1.7,4.8s2.6,1.9,4.4,1.9c1.8,0,3.2-0.6,4.4-1.9s1.7-2.8,1.7-4.8c0-2-0.6-3.6-1.7-4.8c-1.1-1.2-2.6-1.9-4.4-1.9
			C87.7,20,86.3,20.6,85.1,21.9z"/>
		<path class="st0" d="M110.6,47.9c-1.3,0-2.5-0.2-3.5-0.6c-1.1-0.4-2.1-1-3.1-1.8l2.9-5c1.1,0.9,2.1,1.3,3.2,1.3
			c1.5,0,2.5-0.7,3.2-2.2l0.7-1.4l-10.1-23.8h7.2l6.4,16.7l5.7-16.7h7l-10.7,27C117.8,45.7,114.8,47.9,110.6,47.9z"/>
		<rect x="64.6" y="4.4" class="st0" width="6.9" height="7"/>
	</g>
	<g>
		<path class="st0" d="M3.4,98.5h30.8v96.9H3.4V98.5z"/>
		<path class="st0" d="M49.8,57.8h30.8v137.6H49.8V57.8z"/>
		<path class="st0" d="M96.1,57.8h30.8v137.6H96.1V57.8z"/>
		<path class="st0" d="M142.5,98.5h30.8v96.9h-30.8V98.5z"/>
		<path class="st0" d="M286,143.2v52.2h-30.8v-48.7c0-15-9.1-20.6-16.8-20.6c-8.3,0-18.7,4.4-18.7,20.6v48.7h-30.8V98.5h30.8v17.3
			C223,102.1,238.4,96,247.5,96C273.3,96,286,113.5,286,143.2z"/>
		<path class="st0" d="M409.2,98.5H440v96.9h-30.8V98.5z"/>
		<path class="st0" d="M450.2,163.4h29.1c0,4.8,3.5,10.4,12.3,10.4c6.4,0,11.9-2.7,11.9-7.3c0-3.1-2.3-4.6-9.6-6.2l-12.7-3.3
			c-28.5-7.7-29.3-23.9-29.3-32c0-14.3,16.2-28.9,39.7-28.9c18.3,0,40.5,8.5,40.1,32.9h-29.1c0-6.2-4.4-9.1-10.4-9.1
			c-5.2,0-9.6,2.1-9.6,6.2c0,3.7,3.3,5.8,8.3,7.1l16.8,4.6c24.3,6.7,26.4,22,26.4,28.7c0,21.4-22.2,31-41.8,31
			C470.8,197.3,450.2,185.4,450.2,163.4z"/>
		<rect x="143.2" y="58.3" class="st0" width="30.1" height="30.1"/>
		<rect x="409.5" y="58.3" class="st0" width="30.1" height="30.1"/>
		<rect x="4.3" y="58.3" class="st0" width="30.1" height="30.1"/>
		<path class="st0" d="M372.3,97.5c-7.8-4.3-16.3-6.4-24.7-6.3c-8.4,0-16.9,2-24.7,6.3c-25.3,14.1-34.9,46-20.1,70.3
			c13.3,21.9,28,43,42,64.5c0.9,1.4,1.8,2,2.7,2c0.9,0,1.9-0.7,2.7-2c14.1-21.5,28.7-42.6,42.1-64.5
			C407.2,143.5,397.6,111.6,372.3,97.5z M347.6,168.4c-14,0-25.4-11.4-25.4-25.4c0-14.1,11.4-25.4,25.4-25.4
			c14.1,0,25.5,11.4,25.5,25.4C373,157,361.7,168.4,347.6,168.4z"/>
	</g>
</g>
</svg>
