<?xml version="1.0" encoding="UTF-8" standalone="no"?>
<svg
   xmlns:dc="http://purl.org/dc/elements/1.1/"
   xmlns:cc="http://creativecommons.org/ns#"
   xmlns:rdf="http://www.w3.org/1999/02/22-rdf-syntax-ns#"
   xmlns:svg="http://www.w3.org/2000/svg"
   xmlns="http://www.w3.org/2000/svg"
   xmlns:sodipodi="http://sodipodi.sourceforge.net/DTD/sodipodi-0.dtd"
   xmlns:inkscape="http://www.inkscape.org/namespaces/inkscape"
   inkscape:version="1.0 (4035a4fb49, 2020-05-01)"
   sodipodi:docname="logo-header-color.svg"
   id="svg34"
   xml:space="preserve"
   viewBox="0 0 612.9 300"
   version="1.1"
   enable-background="new 0 0 612.9 300"><metadata
   id="metadata40"><rdf:RDF><cc:Work
       rdf:about=""><dc:format>image/svg+xml</dc:format><dc:type
         rdf:resource="http://purl.org/dc/dcmitype/StillImage" /></cc:Work></rdf:RDF></metadata><defs
   id="defs38" /><sodipodi:namedview
   inkscape:current-layer="svg34"
   inkscape:window-maximized="0"
   inkscape:window-y="0"
   inkscape:window-x="0"
   inkscape:cy="150"
   inkscape:cx="306.45001"
   inkscape:zoom="1.855115"
   showgrid="false"
   id="namedview36"
   inkscape:window-height="896"
   inkscape:window-width="1836"
   inkscape:pageshadow="2"
   inkscape:pageopacity="0"
   guidetolerance="10"
   gridtolerance="10"
   objecttolerance="10"
   borderopacity="1"
   bordercolor="#666666"
   pagecolor="#ffffff" />
<style
   id="style2"
   type="text/css">
	.st0{fill:#333232;}
	.st1{fill:#706E6B;}
	.st2{fill:#F08821;}
</style>

	
		
			
				<path
   id="path4"
   d="m 332,103.7 c 0.8,0 1.6,-0.1 2.5,-0.1 h 41.7 c 9,0 17.7,1.2 25.7,5.5 12,6.4 18.6,16.9 19.6,29.9 1.1,13.7 1,27.6 0,41.3 -0.8,11.8 -6.7,21.6 -17,28.5 2.8,7.5 5.6,15 8.4,22.4 3.3,8.9 6.5,17.9 10.1,26.7 1.9,4.5 4.7,8.6 7.1,12.8 0.6,1 1.3,1.8 2.3,3.1 h -43.2 c 3.6,-12.5 -1.9,-23.5 -5.8,-34.7 -2.4,-6.9 -5,-13.8 -7.3,-20.7 -0.7,-2.1 -1.6,-3.2 -4,-2.9 -1.4,0.2 -2.9,0 -4.8,0 v 3.2 34.7 c 0,6.6 1.2,12.8 4.2,18.7 0.2,0.4 0.3,0.9 0.5,1.5 h -40.3 c 1,-2.5 2.3,-4.9 2.8,-7.4 0.8,-4.2 1.6,-8.6 1.6,-12.8 0.1,-43.2 0,-86.4 0.1,-129.7 0,-6.4 -1.1,-12.5 -3.8,-18.2 -0.2,-0.4 -0.4,-0.9 -0.6,-1.3 0.1,0.1 0.2,-0.1 0.2,-0.5 z m 35.6,29.3 v 53.3 c 3.9,0 7.7,0.2 11.4,0 6.2,-0.4 10.5,-3.9 11.5,-10 1.8,-11.1 1.8,-22.3 0,-33.4 -1,-5.7 -5.3,-9.4 -11,-9.9 -3.9,-0.2 -7.7,0 -11.9,0 z"
   class="st0" />
				<path
   id="path6"
   d="m 222.6,187 c 0,-15.7 -0.6,-31.5 0.2,-47.1 0.8,-16.3 8,-29.5 23.6,-36.3 14.2,-6.2 28.8,-6.1 42.9,0.6 13.5,6.5 19.9,18.2 22,32.6 0.4,2.7 0.6,5.4 0.6,8.1 v 84.5 c 0,7.6 -1.3,15 -4.5,21.9 -6.3,13.6 -17.3,20.8 -31.8,22.9 -9.2,1.4 -18.3,0.8 -27,-2.7 -14.7,-5.8 -22.5,-17.2 -25.1,-32.4 -0.7,-3.9 -0.8,-7.9 -0.8,-11.8 -0.1,-13.4 0,-26.8 0,-40.2 -0.2,-0.1 -0.2,-0.1 -0.1,-0.1 z m 58,0.2 c 0,-14 0.1,-28 -0.1,-42 0,-2.8 -0.4,-5.6 -1.2,-8.2 -1.6,-5.5 -6,-8.4 -12,-8.5 -6,-0.1 -10.6,2.7 -12.2,8.2 -1,3.5 -1.5,7.2 -1.5,10.8 -0.1,26.4 -0.1,52.9 0,79.3 0,2.3 0.2,4.6 0.4,6.9 0.8,7.3 5.1,11.4 12.2,11.9 7.2,0.5 12,-2.9 13.7,-10.1 0.6,-2.3 0.7,-4.8 0.7,-7.2 z"
   class="st0" />
				<path
   id="path8"
   d="m 531.3,103.7 h 49.6 c 0.1,0.3 0.2,0.5 0.2,0.6 -4.9,8 -3,16.4 -1.5,24.7 6.8,38.1 13.7,76.2 20.7,114.3 1.3,7.2 2.8,14.4 4.6,21.4 0.8,3.1 2.5,6 3.9,9.2 h -40.2 c 3,-6.9 3.5,-14 2.5,-21.4 h -29.7 c -1.5,7.3 -0.7,14.4 2.3,21.5 h -39.3 c 1.1,-2.4 2.5,-4.6 3.1,-6.9 1.7,-7 3.3,-14 4.6,-21.1 3.1,-16.7 6,-33.4 8.9,-50 4.3,-24.2 8.7,-48.3 12.9,-72.5 1,-6.7 0.4,-13.2 -2.6,-19.8 z m 14.2,119.7 h 21.7 c -3.4,-22.3 -6.9,-44.3 -10.3,-66.4 -0.2,0 -0.4,0 -0.7,0.1 -3.5,22 -7.1,44 -10.7,66.3 z"
   class="st0" />
				<path
   id="path10"
   d="m 46.8,217.5 c -0.1,0.7 -0.2,1.2 -0.2,1.8 0,12.6 -0.2,25.3 0.2,37.9 0.1,4.4 1.9,8.8 3,13.1 0.3,1.2 0.9,2.3 1.5,3.6 H 10.8 c 0.3,-0.9 0.6,-1.6 0.9,-2.2 2.6,-5.6 3.8,-11.4 3.8,-17.6 -0.1,-43.5 -0.1,-87 0,-130.5 0,-6.9 -1.6,-13.3 -4.8,-19.6 0.6,-0.2 0.9,-0.3 1.2,-0.3 17,0.1 34,-0.2 50.9,0.5 21.4,0.8 37,16.2 38.2,37.6 0.7,12.6 0.6,25.3 0,37.8 -1.1,20 -15.1,34.5 -35.1,36.8 -5.5,0.7 -11.1,0.6 -16.7,0.9 -0.8,0 -1.5,0.1 -2.4,0.2 z m 0,-84.8 V 188 c 3.6,0 6.9,0.2 10.3,0 7.4,-0.4 12.2,-4.3 12.7,-11.7 0.7,-9.9 0.7,-19.8 0.4,-29.7 -0.2,-6.4 -3,-11.8 -10,-13.1 -4.4,-0.9 -8.8,-0.6 -13.4,-0.8 z"
   class="st0" />
				<path
   id="path12"
   d="m 155.3,244.9 c 7.2,0 14.2,0.1 21.2,0 5,-0.1 10,-0.1 15,-0.8 3.6,-0.5 7.1,-2.1 10.8,-3.2 V 274 h -83 c 0.8,-2 1.9,-3.8 2.3,-5.8 1,-4.8 2.3,-9.6 2.3,-14.5 0.2,-43.1 0.1,-86.2 0.1,-129.4 0,-6.5 -1.2,-12.6 -4,-18.5 -0.3,-0.6 -0.4,-1.2 -0.7,-2 h 82.8 v 33.6 c -2,-0.8 -3.8,-1.8 -5.7,-2.2 -3.8,-0.9 -7.7,-2 -11.6,-2.1 -9.8,-0.3 -19.7,-0.1 -29.7,-0.1 v 53.7 c 6.4,0 12.9,0.3 19.3,-0.1 6.4,-0.4 12.7,-1.5 19.3,-2.3 -2.1,12 -4.2,24.6 -6.5,37.7 -10,-6.9 -21,-6.3 -32.2,-6 0.3,9.4 0.3,18.9 0.3,28.9 z"
   class="st0" />
				<path
   id="path14"
   d="m 448.1,273.9 c 5.8,-10.1 4.8,-20.9 4.8,-31.6 V 132 c 0,-9.6 0.4,-19.1 -4.8,-28.2 h 40.1 c 0,0.3 0.2,0.5 0.1,0.6 -4.3,6.7 -4.4,14.2 -4.4,21.8 v 118.9 c 0,9.8 -0.4,19.5 5,28.7 -13.8,0.1 -27,0.1 -40.8,0.1 z"
   class="st0" />
			
		
	
	
		<path
   id="path16"
   d="m 41.5,24.6 c 5.1,0 9.4,4.2 9.4,9.4 v 27.3 c 0,5.3 -4.3,9.4 -9.4,9.4 H 16.7 V 24.6 Z M 39,37.8 c 0,-2 -1.4,-3.3 -3.3,-3.3 h -7.1 v 26.2 h 7.1 c 2,0 3.3,-1.4 3.3,-3.3 z"
   class="st1" />
		<path
   id="path18"
   d="M 76.8,70.7 H 65 V 24.6 h 11.8 z"
   class="st1" />
		<path
   id="path20"
   d="m 90.6,60.7 h 17.3 c 0.5,0 0.8,-0.3 0.8,-0.6 v -6.7 c 0,-0.3 -0.3,-0.6 -0.8,-0.6 H 96 c -3.2,0 -5.4,-2.2 -5.4,-5.4 V 30 c 0,-3.2 2.2,-5.4 5.4,-5.4 h 23.8 v 9.9 h -16.7 c -0.4,0 -0.7,0.3 -0.7,0.8 V 42 c 0,0.3 0.3,0.6 0.7,0.6 H 115 c 3.2,0 5.4,2.2 5.4,5.4 v 17.3 c 0,3.2 -2.2,5.4 -5.4,5.4 H 90.6 Z"
   class="st1" />
		<path
   id="path22"
   d="m 167.8,53.5 v 11.9 c 0,3 -2.5,5.3 -5.4,5.3 h -23.1 c -2.9,0 -5.3,-2.3 -5.3,-5.3 V 29.8 c 0,-2.8 2.3,-5.2 5.3,-5.2 h 23.1 c 2.9,0 5.4,2.4 5.4,5.2 v 11.9 h -11.9 v -6.4 c 0,-0.4 -0.3,-0.8 -0.6,-0.8 h -8.7 c -0.4,0 -0.8,0.3 -0.8,0.8 V 60 c 0,0.4 0.3,0.7 0.8,0.7 h 8.7 c 0.3,0 0.6,-0.3 0.6,-0.7 v -6.6 h 11.9 z"
   class="st1" />
		<path
   id="path24"
   d="m 210.2,24.6 c 3.2,0 5.4,2.2 5.4,5.4 v 35.3 c 0,3.2 -2.2,5.4 -5.4,5.4 h -23.7 c -3.2,0 -5.4,-2.2 -5.4,-5.4 V 30 c 0,-3.2 2.2,-5.4 5.4,-5.4 z m -6.5,10.7 c 0,-0.4 -0.3,-0.8 -0.8,-0.8 h -9.4 c -0.3,0 -0.6,0.3 -0.6,0.8 v 24.8 c 0,0.3 0.3,0.6 0.6,0.6 h 9.4 c 0.4,0 0.8,-0.3 0.8,-0.6 z"
   class="st1" />
		<path
   id="path26"
   d="M 265.8,24.6 252.1,70.7 H 240.6 L 227.2,24.6 h 12.7 l 6.4,29.3 7.7,-29.3 z"
   class="st1" />
		<path
   id="path28"
   d="m 278.1,24.6 h 30.1 v 9.9 h -18.3 v 8.1 h 15.8 v 9.8 h -15.8 v 8.3 h 18.3 v 10 h -30.1 z"
   class="st1" />
		<path
   id="path30"
   d="m 350.7,24.6 c 2.8,0 5.2,2.3 5.2,5.2 v 21.1 c 0,2.8 -2.4,5.2 -5.2,5.2 h -0.3 l 5.7,14.6 h -11.6 l -5.7,-14.6 h -5.1 V 70.7 H 321.8 V 24.6 Z M 344,35.2 c 0,-0.3 -0.3,-0.7 -0.6,-0.7 h -9.8 v 12.3 h 9.8 c 0.3,0 0.6,-0.3 0.6,-0.6 z"
   class="st1" />
	
	<polygon
   transform="translate(0,-6)"
   id="polygon32"
   points="377.1,76.7 377.1,30.6 468.2,30.6 452.5,53.6 468.2,76.7 "
   class="st2" />

</svg>
