<?xml version="1.0" encoding="utf-8"?>
<!-- Generator: Adobe Illustrator 24.1.0, SVG Export Plug-In . SVG Version: 6.00 Build 0)  -->
<svg version="1.1" id="Layer_1" xmlns="http://www.w3.org/2000/svg" xmlns:xlink="http://www.w3.org/1999/xlink" x="0px" y="0px"
	 viewBox="0 0 601.9 496" style="enable-background:new 0 0 601.9 496;" xml:space="preserve">
<style type="text/css">
	.st0{fill:#FFF;}
	.st1{fill:#FFF;}
</style>
<g>
	<g>
		<path class="st0" d="M137.9,54.5c2.6-2.2,6.7-1.9,8.9,0.8l11.9,14.3c2.3,2.7,1.8,6.8-0.8,9l-12.9,10.8l-20-24.1L137.9,54.5z
			 M142.3,62.5c-0.9-1-2.2-1.2-3.2-0.3l-3.7,3.1L146.8,79l3.7-3.1c1-0.9,1.2-2.2,0.3-3.2L142.3,62.5z"/>
		<path class="st0" d="M188.7,58.3l-7,3.9L166.4,35l7-3.9L188.7,58.3z"/>
		<path class="st0" d="M206.7,42.1l11-3.9c0.3-0.1,0.4-0.3,0.3-0.6l-1.5-4.3c-0.1-0.2-0.3-0.3-0.6-0.2l-7.6,2.7
			c-2.1,0.7-3.9-0.2-4.7-2.2l-4-11.1c-0.7-2.1,0.2-3.9,2.2-4.7l15.2-5.4l2.3,6.3l-10.7,3.8c-0.3,0.1-0.4,0.4-0.3,0.6l1.5,4.3
			c0.1,0.2,0.3,0.3,0.6,0.2l7.6-2.7c2.1-0.7,3.9,0.2,4.7,2.2l3.9,11c0.7,2.1-0.2,3.9-2.2,4.7L209,48.5L206.7,42.1z"/>
		<path class="st0" d="M270.5,21.5l1.1,8c0.3,2-1.2,3.8-3.1,4L253,35.8c-2,0.3-3.7-1-4-3l-3.4-24c-0.3-1.9,1.1-3.7,3-4l15.6-2.2
			c2-0.3,3.9,1.1,4.1,3l1.1,8l-8,1.1l-0.6-4.3c0-0.3-0.3-0.5-0.5-0.4l-5.8,0.8c-0.3,0-0.5,0.3-0.4,0.6l2.4,16.7
			c0,0.3,0.3,0.4,0.6,0.4l5.8-0.8c0.2,0,0.4-0.2,0.3-0.5l-0.6-4.4L270.5,21.5z"/>
		<path class="st0" d="M316,2.5c2.2,0.2,3.6,1.7,3.4,3.9l-1.7,23.9c-0.2,2.2-1.7,3.6-3.9,3.4l-16-1.1c-2.2-0.2-3.6-1.7-3.4-3.9
			L296,4.8c0.2-2.2,1.7-3.6,3.9-3.4L316,2.5z M311.1,9.5c0-0.3-0.2-0.5-0.5-0.5l-6.3-0.4c-0.2,0-0.4,0.2-0.5,0.5l-1.2,16.8
			c0,0.2,0.2,0.4,0.4,0.4l6.3,0.4c0.3,0,0.5-0.1,0.5-0.4L311.1,9.5z"/>
		<path class="st0" d="M371.7,14.7L354,42.1l-7.5-2.2l0-32.6l8.3,2.4l-1.4,20.3L364,12.5L371.7,14.7z"/>
		<path class="st0" d="M397.1,25.4l18.1,9.6l-3.2,5.9l-11-5.8l-2.6,4.8l9.5,5l-3.1,5.9l-9.5-5l-2.7,5l11,5.8l-3.2,6L382.4,53
			L397.1,25.4z"/>
		<path class="st0" d="M454,63.4c1.5,1.2,1.7,3.4,0.5,5l-9.2,11c-1.2,1.5-3.5,1.7-5,0.5l-0.2-0.1l-3.4,10.1l-6.1-5l3.3-10.1
			l-2.6-2.2L425,80l-6.2-5.2l20-24.1L454,63.4z M445.9,66c0.1-0.2,0.1-0.5,0-0.6l-5.1-4.3l-5.3,6.4l5.1,4.3c0.1,0.1,0.5,0.1,0.6-0.1
			L445.9,66z"/>
	</g>
	<g>
		<path class="st0" d="M115.4,373.1l-5.8,3.8l-3.9-6.1l-21.1,13.6l-4.5-7l21.1-13.6l-3.9-6.1l5.8-3.8L115.4,373.1z"/>
		<path class="st0" d="M117.1,424l-5.6-6.1l9.3-8.7l-5.3-5.8l-9.3,8.7l-5.6-6.1l23.5-21.8l5.6,6.1l-9,8.3l5.3,5.8l9-8.3l5.6,6.1
			L117.1,424z"/>
		<path class="st0" d="M152.4,412.6l16.7,12.7l-4.2,5.5l-10.1-7.7l-3.4,4.5l8.8,6.7l-4.1,5.4l-8.8-6.7l-3.5,4.6l10.1,7.7l-4.2,5.5
			l-16.7-12.7L152.4,412.6z"/>
		<path class="st0" d="M218.5,450.3c1.8,0.7,2.8,2.8,2,4.7l-5.5,13.6c-0.7,1.8-2.9,2.7-4.7,2l-0.2-0.1l-0.1,10.9l-7.5-3l0.1-10.9
			l-3.3-1.3l-3.8,9.4l-7.7-3.1l11.9-29.8L218.5,450.3z M211.5,455.4c0.1-0.2,0-0.5-0.2-0.6l-6.4-2.5l-3.2,7.9l6.4,2.5
			c0.2,0.1,0.5-0.1,0.6-0.2L211.5,455.4z"/>
		<path class="st0" d="M237.7,488.9l-8-1.9l7.3-31.2l8,1.9L237.7,488.9z"/>
		<path class="st0" d="M285.8,462.8L273.7,494l-8-0.7l-6.6-32.7l8.8,0.7l2.8,20.7l7-19.9L285.8,462.8z"/>
		<path class="st0" d="M300.1,462.5l20.9-1.9l0.6,6.9l-12.7,1.1l0.5,5.6l11-1l0.6,6.8l-11,1l0.5,5.8l12.7-1.1l0.6,6.9l-20.9,1.9
			L300.1,462.5z"/>
		<path class="st0" d="M355.2,452.8c1.9-0.5,3.9,0.6,4.4,2.5l3.8,14.2c0.5,1.9-0.7,3.9-2.5,4.4l-0.2,0.1l6.5,8.8l-7.8,2.1l-6.5-8.8
			l-3.4,0.9l2.7,9.8l-8,2.2l-8.4-31L355.2,452.8z M352.7,461.1c-0.1-0.2-0.4-0.4-0.5-0.3l-6.6,1.8l2.2,8.3l6.6-1.8
			c0.2,0,0.4-0.3,0.3-0.5L352.7,461.1z"/>
		<path class="st0" d="M422,442.9l4.3,7.1c1.1,1.8,0.4,4-1.3,5.1l-13.8,8.3c-1.8,1.1-3.9,0.5-5-1.3l-12.8-21.3c-1-1.7-0.5-3.9,1.3-5
			l13.8-8.3c1.8-1,4.1-0.5,5.1,1.2l4.3,7.1l-7.1,4.2l-2.3-3.8c-0.1-0.2-0.5-0.3-0.6-0.2l-5.2,3.1c-0.2,0.1-0.3,0.5-0.2,0.7l8.9,14.8
			c0.1,0.2,0.4,0.3,0.7,0.1l5.2-3.1c0.2-0.1,0.3-0.4,0.1-0.6l-2.3-3.9L422,442.9z"/>
		<path class="st0" d="M450.6,435.9l-6.4,5.2l-20.3-24.8l6.4-5.2L450.6,435.9z"/>
		<path class="st0" d="M456.6,384.8l5.1,4.7l-4.9,5.3l18.5,17.1l-5.6,6.1l-18.5-17.1l-4.9,5.3l-5.1-4.7L456.6,384.8z"/>
		<path class="st0" d="M496.2,384.9l-7.9-5.1l-2.3,3.6c-1.1,1.6-3.4,2.1-5.2,1L465,374l4.5-6.9l12.4,8c0.2,0.1,0.6,0,0.7-0.2
			l3.6-5.5c0.2-0.2,0-0.4-0.2-0.5l-12.4-8l4.5-6.9l15.8,10.3c1.8,1.1,2.3,3.5,1.2,5.1l-2.3,3.6l7.9,5.1L496.2,384.9z"/>
	</g>
	<g>
		<g>
			<g>
				<g>
					<path class="st1" d="M258.5,117.6c0.4-18,14.7-33,33-33c18.2,0,32.6,15,33,33c0.1,4.2,6.7,4.2,6.6,0
						C330.6,96,313.3,78.1,291.5,78c-21.9,0-39.1,18.1-39.5,39.5C251.8,121.8,258.4,121.8,258.5,117.6L258.5,117.6z"/>
				</g>
			</g>
		</g>
		<g>
			<g>
				<g>
					<path class="st1" d="M300.9,117.6c-0.7,12.1-18.9,12.2-18.9,0C282,105.4,300.3,105.5,300.9,117.6c0.2,4.2,6.8,4.2,6.6,0
						c-0.5-8.7-7-16-16-16c-8.7,0-16,7.3-16,16c0,8.5,6.9,15.6,15.3,16c9.3,0.4,16.2-7,16.7-16C307.7,113.3,301.1,113.3,300.9,117.6
						z"/>
				</g>
			</g>
		</g>
		<g>
			<g>
				<g>
					<path class="st1" d="M294.8,103.7c0-13.4,0-40.1,0-40.1h-6.6c0,0,0,26.8,0,40.1C288.2,107.9,294.8,107.9,294.8,103.7
						L294.8,103.7z"/>
				</g>
			</g>
		</g>
		<g>
			<g>
				<g>
					<path class="st1" d="M276.7,115.1c-13.4,0-40.1,0-40.1,0v6.6c0,0,26.8,0,40.1,0C281,121.7,281,115.1,276.7,115.1L276.7,115.1z"
						/>
				</g>
			</g>
		</g>
		<g>
			<g>
				<g>
					<path class="st1" d="M304.7,115.1c-4.2,0-4.2,6.6,0,6.6c13.9,0,41.6,0,41.6,0v-6.6C346.4,115.1,318.6,115.1,304.7,115.1z"/>
				</g>
			</g>
		</g>
		<g>
			<g>
				<g>
					<path class="st1" d="M304.2,110.3c9.5-9.5,28.4-28.4,28.4-28.4l-4.7-4.7c0,0-18.9,18.9-28.4,28.4
						C296.6,108.7,301.2,113.3,304.2,110.3L304.2,110.3z"/>
				</g>
			</g>
		</g>
		<g>
			<g>
				<g>
					<path class="st1" d="M283.4,105.7c-9.5-9.5-28.4-28.4-28.4-28.4l-4.7,4.7c0,0,18.9,18.9,28.4,28.4
						C281.7,113.3,286.4,108.7,283.4,105.7L283.4,105.7z"/>
				</g>
			</g>
		</g>
	</g>
	<g>
		<g>
			<circle class="st0" cx="214.4" cy="398.4" r="5.9"/>
		</g>
	</g>
	<g>
		<g>
			<circle class="st0" cx="379.8" cy="398.4" r="5.9"/>
		</g>
	</g>
	<g>
		<circle class="st0" cx="103.2" cy="112.4" r="8.8"/>
	</g>
	<g>
		<circle class="st0" cx="479.8" cy="112.4" r="8.8"/>
	</g>
	<g>
		<g>
			<g>
				<g>
					<path class="st0" d="M323.4,151.8c0.8,0,1.6-0.1,2.5-0.1c13.9,0,27.8,0,41.7,0c9,0,17.7,1.2,25.8,5.5
						c12,6.4,18.6,16.9,19.6,29.9c1.1,13.7,1,27.6,0,41.3c-0.8,11.8-6.7,21.6-17,28.6c2.8,7.5,5.6,15,8.4,22.5
						c3.4,8.9,6.5,18,10.1,26.8c1.9,4.5,4.7,8.6,7.1,12.8c0.6,1,1.3,1.8,2.3,3.1c-14.7,0-28.8,0-43.2,0c3.6-12.5-1.9-23.5-5.8-34.7
						c-2.4-6.9-5-13.8-7.4-20.7c-0.7-2.2-1.6-3.2-4-2.9c-1.4,0.2-2.9,0-4.8,0c0,1.2,0,2.2,0,3.2c0,11.6,0,23.2,0,34.8
						c0,6.6,1.2,12.8,4.2,18.7c0.2,0.4,0.3,0.9,0.5,1.5c-13.5,0-26.8,0-40.4,0c1-2.5,2.3-4.9,2.8-7.4c0.8-4.2,1.6-8.6,1.6-12.9
						c0.1-43.3,0-86.5,0.1-129.8c0-6.4-1.1-12.5-3.8-18.2c-0.2-0.4-0.4-0.9-0.6-1.3C323.3,152.3,323.4,152.1,323.4,151.8z
						 M359,181.1c0,17.9,0,35.6,0,53.4c3.9,0,7.7,0.2,11.4,0c6.2-0.4,10.5-3.9,11.5-10c1.8-11.1,1.8-22.3,0-33.4
						c-1-5.7-5.3-9.5-11-9.9C367.1,180.8,363.2,181.1,359,181.1z"/>
				</g>
				<g>
					<path class="st0" d="M213.9,235.2c0-15.7-0.6-31.5,0.2-47.2c0.8-16.3,8-29.5,23.6-36.3c14.2-6.2,28.9-6.1,42.9,0.6
						c13.5,6.5,19.9,18.2,22,32.6c0.4,2.7,0.6,5.4,0.6,8.1c0,28.2,0,56.4,0,84.6c0,7.6-1.3,15-4.6,21.9
						c-6.3,13.6-17.4,20.8-31.9,22.9c-9.2,1.4-18.3,0.8-27.1-2.7c-14.8-5.8-22.5-17.2-25.1-32.5c-0.7-3.9-0.8-7.9-0.8-11.8
						c-0.1-13.4,0-26.8,0-40.3C213.8,235.2,213.8,235.2,213.9,235.2z M271.9,235.3c0-14,0.1-28-0.1-42c0-2.8-0.4-5.6-1.2-8.2
						c-1.6-5.5-6-8.4-12.1-8.5c-6-0.1-10.6,2.7-12.3,8.2c-1,3.5-1.5,7.2-1.5,10.8c-0.1,26.5-0.1,52.9,0,79.4c0,2.3,0.2,4.6,0.4,6.9
						c0.8,7.3,5.2,11.4,12.2,11.9c7.2,0.5,12-2.9,13.7-10.1c0.6-2.3,0.7-4.8,0.7-7.2C272,262.8,271.9,249.1,271.9,235.3z"/>
				</g>
				<g>
					<path class="st0" d="M522.9,151.7c16.9,0,33.3,0,49.7,0c0.1,0.3,0.2,0.5,0.2,0.6c-4.9,8-3,16.4-1.5,24.7
						c6.9,38.1,13.7,76.3,20.7,114.4c1.3,7.2,2.8,14.4,4.6,21.5c0.8,3.1,2.5,6,3.9,9.2c-13.4,0-26.6,0-40.2,0c3-6.9,3.5-14,2.5-21.5
						c-9.8,0-19.6,0-29.7,0c-1.5,7.3-0.7,14.4,2.3,21.5c-13.2,0-26.1,0-39.3,0c1.1-2.4,2.5-4.6,3.1-6.9c1.7-7,3.3-14.1,4.6-21.2
						c3.1-16.7,6-33.4,8.9-50.1c4.3-24.2,8.7-48.4,12.9-72.6C526.5,164.9,526,158.3,522.9,151.7z M537.2,271.6c7.4,0,14.4,0,21.7,0
						c-3.5-22.3-6.9-44.4-10.3-66.4c-0.2,0-0.4,0-0.7,0.1C544.4,227.2,540.8,249.3,537.2,271.6z"/>
				</g>
				<g>
					<path class="st0" d="M37.9,265.6c-0.1,0.7-0.2,1.2-0.2,1.8c0,12.6-0.3,25.3,0.2,37.9c0.1,4.4,1.9,8.8,3,13.2
						c0.3,1.2,0.9,2.3,1.5,3.6c-13.6,0-27,0-40.6,0c0.3-0.9,0.6-1.6,0.9-2.2c2.6-5.6,3.8-11.5,3.8-17.7c-0.1-43.5-0.1-87.1,0-130.6
						c0-6.9-1.6-13.3-4.8-19.6c0.6-0.2,0.9-0.3,1.2-0.3c17,0.1,34-0.2,51,0.5c21.4,0.8,37.1,16.2,38.2,37.6
						c0.7,12.6,0.6,25.3,0,37.9c-1.1,20-15.2,34.5-35.1,36.9c-5.5,0.7-11.2,0.6-16.7,0.9C39.5,265.5,38.7,265.6,37.9,265.6z
						 M37.9,180.7c0,18.9,0,37,0,55.4c3.6,0,6.9,0.2,10.3,0c7.4-0.4,12.2-4.3,12.7-11.7c0.7-9.9,0.7-19.8,0.4-29.7
						c-0.2-6.4-3-11.8-10-13.1C46.9,180.7,42.4,181,37.9,180.7z"/>
				</g>
				<g>
					<path class="st0" d="M146.5,293.1c7.2,0,14.2,0.1,21.3,0c5-0.1,10.1-0.1,15-0.8c3.6-0.5,7.1-2.1,10.8-3.2c0,11,0,22,0,33.2
						c-27.6,0-55.2,0-83.1,0c0.8-2,1.9-3.8,2.3-5.8c1-4.8,2.3-9.6,2.3-14.5c0.2-43.2,0.1-86.3,0.1-129.5c0-6.5-1.2-12.7-4-18.5
						c-0.3-0.6-0.4-1.2-0.7-2c27.7,0,55.2,0,82.9,0c0,11.2,0,22.3,0,33.7c-2-0.8-3.8-1.8-5.7-2.2c-3.8-0.9-7.7-2-11.6-2.1
						c-9.8-0.3-19.7-0.1-29.7-0.1c0,17.9,0,35.6,0,53.8c6.5,0,12.9,0.3,19.3-0.1c6.4-0.4,12.7-1.5,19.4-2.3
						c-2.1,12-4.2,24.6-6.5,37.7c-10-6.9-21-6.3-32.2-6C146.5,273.6,146.5,283,146.5,293.1z"/>
				</g>
				<g>
					<path class="st0" d="M439.6,322.1c5.8-10.1,4.8-21,4.8-31.6c0-36.8,0-73.6,0-110.4c0-9.6,0.4-19.2-4.8-28.2
						c13.7,0,26.9,0,40.2,0c0,0.3,0.2,0.5,0.1,0.6c-4.3,6.7-4.4,14.2-4.4,21.8c0,39.7,0,79.4,0,119.1c0,9.8-0.4,19.6,5,28.8
						C466.7,322.1,453.5,322.1,439.6,322.1z"/>
				</g>
			</g>
		</g>
	</g>
	<g>
		<path class="st1" d="M274.2,354.2c2.1,0,3.8,1.7,3.8,3.8l0,11.1c0,2.1-1.7,3.8-3.8,3.9l-10.1,0l-0.1-18.8L274.2,354.2z
			 M273.2,359.6c0-0.8-0.6-1.4-1.4-1.4l-2.9,0l0,10.7l2.9,0c0.8,0,1.4-0.6,1.4-1.4L273.2,359.6z"/>
		<path class="st1" d="M288,372.9l-4.8,0l-0.1-18.8l4.8,0L288,372.9z"/>
		<path class="st1" d="M293,368.9l7,0c0.2,0,0.3-0.1,0.3-0.3l0-2.7c0-0.1-0.1-0.2-0.3-0.2l-4.8,0c-1.3,0-2.2-0.9-2.2-2.2l0-7.1
			c0-1.3,0.9-2.2,2.2-2.2l9.7,0l0,4l-6.8,0c-0.2,0-0.3,0.1-0.3,0.3l0,2.8c0,0.1,0.1,0.3,0.3,0.2l4.8,0c1.3,0,2.2,0.9,2.2,2.2l0,7
			c0,1.3-0.9,2.2-2.2,2.2l-10,0L293,368.9z"/>
		<path class="st1" d="M323.6,365.8l0,4.9c0,1.2-1,2.1-2.2,2.1l-9.4,0c-1.2,0-2.1-0.9-2.2-2.1l0-14.5c0-1.1,0.9-2.1,2.1-2.1l9.4,0
			c1.2,0,2.2,1,2.2,2.1l0,4.8l-4.8,0l0-2.6c0-0.2-0.1-0.3-0.3-0.3l-3.5,0c-0.2,0-0.3,0.1-0.3,0.3l0,10.1c0,0.2,0.1,0.3,0.3,0.3
			l3.5,0c0.1,0,0.3-0.1,0.3-0.3l0-2.7L323.6,365.8z"/>
		<path class="st1" d="M333,372.8l-5.2,0l0-5.1l5.2,0L333,372.8z"/>
	</g>
	<g>
		<path class="st0" d="M245.4,388.7l7-2.3l6,0l0.1,20.1l7,0l0,5.9l-20.9,0.1l0-5.9l7.2,0l0-14.4l-5.5,1.3L245.4,388.7z"/>
		<path class="st0" d="M280.4,391.8c-0.3,0-0.4,0.2-0.4,0.4l0,3.8l9.4,0c1.5,0,2.9,1.5,2.9,3l0,10.4c0,1.5-1.5,2.9-2.9,2.9l-13.1,0
			c-2.2,0-3-2.2-3-3.6l-0.1-19.4c0-1.5,0.7-3,3-3l15.5,0l0,5.5L280.4,391.8z M280.4,400.7c-0.3,0-0.4,0.2-0.4,0.4l0,5.2
			c0,0.3,0.2,0.4,0.4,0.4l4.8,0c0.3,0,0.4-0.2,0.4-0.4l0-5.2c0-0.3-0.2-0.4-0.4-0.4L280.4,400.7z"/>
		<path class="st0" d="M317.8,398.7c1.5,0.1,3,1.3,3,3.3l0,7.2c0,1.5-1.4,3-2.8,3l-13.4,0c-1.5,0-2.9-1.5-2.9-3l0-7.2
			c0-2,1.4-3.2,3-3.3c-1.5-0.1-3-0.8-3-2.8l0-6.7c0-1.5,1.4-3,2.8-3l13.4,0c1.4,0,2.8,1.5,2.8,3l0,6.7
			C320.8,397.8,319.3,398.6,317.8,398.7z M314.1,392.1c0-0.3-0.2-0.4-0.4-0.4l-4.8,0c-0.3,0-0.4,0.2-0.4,0.4l0,4.3
			c0,0.3,0.2,0.4,0.4,0.4l4.8,0c0.3,0,0.4-0.2,0.4-0.4L314.1,392.1z M314.1,401.7c0-0.3-0.2-0.4-0.4-0.4l-4.8,0
			c-0.3,0-0.4,0.2-0.4,0.4l0,4.5c0,0.3,0.2,0.4,0.4,0.4l4.8,0c0.3,0,0.4-0.2,0.4-0.4L314.1,401.7z"/>
		<path class="st0" d="M349.5,389l0.1,20.1c0,1.7-1.3,3-2.9,3l-13.2,0c-1.6,0-3-1.3-3-3l-0.1-20.1c0-1.7,1.4-2.9,3-2.9l13.2,0
			C348.2,386.1,349.5,387.4,349.5,389z M342.4,406.6c0.3,0,0.4-0.2,0.4-0.4l0-14.1c0-0.3-0.2-0.4-0.4-0.4l-4.8,0
			c-0.3,0-0.4,0.2-0.4,0.4l0,14.1c0,0.3,0.2,0.4,0.4,0.4L342.4,406.6z"/>
	</g>
</g>
</svg>
