<?xml version="1.0" encoding="utf-8"?>
<!-- Generator: Adobe Illustrator 24.0.1, SVG Export Plug-In . SVG Version: 6.00 Build 0)  -->
<svg version="1.1" id="Layer_1" xmlns="http://www.w3.org/2000/svg" xmlns:xlink="http://www.w3.org/1999/xlink" x="0px" y="0px"
	 viewBox="0 0 300 30" style="enable-background:new 0 0 300 30;" xml:space="preserve">
<style type="text/css">
	.st0{fill:#FFFFFF;}
	.st1{fill:#BEBEBE;}
	.st2{fill:#8DC63F;}
	.st3{fill:#00A4E4;}
	.st4{fill:#FDB924;}
</style>
<g>
	<path class="st0" d="M244.2,23.9h3.3l3.2-10c0.2-0.8,0.4-1.7,0.4-1.7h0.1c0,0,0.2,0.9,0.4,1.7l3.2,10h3.3l5-15.5h-3.1l-3.2,10.9
		c-0.2,0.5-0.3,1.1-0.4,1.7h-0.1c0,0-0.2-0.9-0.4-1.7l-3.3-10.9h-2.7l-3.4,10.9c-0.2,0.5-0.3,1.1-0.4,1.7h-0.1c0,0-0.2-0.9-0.4-1.7
		l-3.2-10.9h-3.2L244.2,23.9z M183.6,16.1c0,4.6,3.3,8.1,8.2,8.1c2.2,0,4.3-0.8,6-2.2l-1.2-2.2c0,0-1.9,1.8-4.6,1.8
		c-2.8,0-5.2-1.7-5.3-5.1H198c0,0,0.1-0.9,0.1-1.3c0-4-2.3-7.3-6.7-7.3S183.6,11.2,183.6,16.1L183.6,16.1z M186.8,14.3
		c0.4-2.5,2.3-4,4.5-4c2,0,3.6,1.3,3.7,4L186.8,14.3z M176.6,19.6c0,3.9,2.5,4.4,4.2,4.4c0.3,0,0.7,0,1-0.1v-2.6c-0.2,0-0.3,0-0.5,0
		c-0.9,0-1.7-0.3-1.7-2.2V2.2h-3L176.6,19.6z M109.6,22c0,0,2.1,2.3,5.9,2.3c3.4,0,5.6-1.9,5.6-4.5c0-5.1-8-4.5-8-7.3
		c0-1.3,1.3-1.9,2.5-1.9c2.5,0,3.8,1.4,3.8,1.4l1.2-2.2c0,0-1.6-1.7-5-1.7c-3.1,0-5.6,1.6-5.6,4.4c0,5.1,8,4.5,8,7.3
		c0,1.3-1.3,1.9-2.6,1.9c-1.7,0-3.2-0.7-4.4-1.8L109.6,22z M131.5,23.9h3v-7.1c0-0.7,0-1.4,0.2-2c0.6-2.2,2.2-4.1,4.4-4.1
		c2.4,0,2.7,1.9,2.7,3.9v9.3h3v-7.1c0-0.7,0.1-1.4,0.2-2.1c0.6-2.1,2.2-4,4.4-4c2.3,0,2.8,1.7,2.8,3.9v9.3h3v-9.9
		c0-4-1.6-5.9-5.1-5.9c-2.4,0-4.5,1.4-5.5,3.5h-0.1c-0.5-2.3-2.1-3.5-4.7-3.5c-2.4,0-4.6,1.7-5.3,3.6h-0.1c0-0.4,0.1-0.8,0.1-1.1v-2
		h-2.9V23.9z M158.8,30h3v-7c0-0.5,0-0.9-0.1-1.3h0.1c0,0,1.3,2.5,4.8,2.5c4,0,7-3.2,7-8.1c0-4.8-2.6-8.1-6.8-8.1
		c-3.9,0-5.2,2.8-5.2,2.8h-0.1c0-0.4,0.1-0.8,0.1-1.1V8.4h-2.7L158.8,30z M161.7,16.2c0-4,2.1-5.6,4.5-5.6c2.6,0,4.4,2.2,4.4,5.6
		c0,3.5-2,5.5-4.5,5.5C163.2,21.7,161.7,18.9,161.7,16.2z M124.5,23.9h3V8.4h-3V23.9z M126,2.2c-1,0-1.8,0.8-1.8,1.8
		s0.8,1.8,1.8,1.8c1,0,1.8-0.8,1.8-1.8v0C127.9,3.1,127,2.2,126,2.2C126,2.2,126,2.2,126,2.2z M223.2,16.1c0,4.6,3.3,8.1,8.2,8.1
		c2.2,0,4.3-0.8,6-2.2l-1.2-2.2c0,0-1.9,1.8-4.6,1.8c-2.8,0-5.2-1.7-5.3-5.1h11.3c0,0,0.1-0.9,0.1-1.3c0-4-2.3-7.3-6.7-7.3
		C226.5,8,223.2,11.2,223.2,16.1z M226.3,14.3c0.4-2.5,2.3-4,4.5-4c2,0,3.7,1.3,3.7,4H226.3z M205.4,23.9h3.4l5.7-15.5h-3.1
		l-3.8,10.5c-0.3,0.9-0.5,2.1-0.6,2.1h-0.1c0,0-0.2-1.3-0.5-2.1l-3.8-10.5h-3.2L205.4,23.9z M217.4,23.9h3V8.4h-3V23.9z M218.9,2.2
		c-1,0-1.8,0.8-1.8,1.8s0.8,1.8,1.8,1.8c1,0,1.8-0.8,1.8-1.8C220.7,3.1,219.9,2.2,218.9,2.2C218.9,2.2,218.9,2.2,218.9,2.2z
		 M0.1,23.9h6.4V22h-2v-3.9c0-2.5,1.4-5,3.8-5c2,0,2.2,1.5,2.2,3.2v7.6H15V22h-2v-4c0-2.5,1.4-4.9,3.7-4.9c1.9,0,2.2,1.4,2.2,3.2
		v7.6h4.4V22h-2v-6.2c0-3.2-1.3-4.9-4.1-4.9c-2.1,0-3.8,1.4-4.5,3h-0.1c-0.4-2.1-1.7-3-3.7-3S5.1,12.5,4.4,14h0
		c0-0.2,0.1-0.5,0.1-0.7v-0.7c0-0.9-0.5-1.4-1.6-1.4H0v1.9h1.6c0.3,0,0.5,0.1,0.5,0.4c0,0,0,0.1,0,0.1V22h-2V23.9z M24.7,20.3
		c0,2.6,2.1,3.8,4.2,3.8c3.1,0,4.2-2.7,4.2-2.7h0.1C33,21.8,33,22.1,33,22.3v0.2c0,0.8,0.4,1.4,1.6,1.4h2.5V22h-1.3
		c-0.3,0-0.5-0.2-0.6-0.4c0,0,0-0.1,0-0.1v-5.7c0-3.2-1.7-4.9-4.9-4.9c-1.7,0-3.4,0.5-4.8,1.5l1,1.7c0,0,1.6-1.2,3.6-1.2
		c1.6,0,2.7,0.7,2.7,2.7v0.5h-0.8C30,16.1,24.7,16.4,24.7,20.3z M27.1,20.1c0-2.4,4-2.5,5.1-2.5h0.6v0.5c0,1.9-1.3,4.1-3.5,4.1
		C28,22.3,27.1,21.3,27.1,20.1L27.1,20.1z M38.1,17.5c0,3.9,2.1,6.6,5.5,6.6c3.3,0,4.3-2.5,4.3-2.5H48c-0.1,0.2-0.1,0.4-0.1,0.7v0.2
		c0,0.8,0.5,1.4,1.6,1.4H52V22h-1.3c-0.3,0-0.5-0.2-0.6-0.4c0,0,0-0.1,0-0.1V6.2h-4.5v1.9h2.1v4c0,0.3,0,0.6,0.1,1h0
		c0,0-1-2.1-3.9-2.1C40.5,10.9,38.1,13.5,38.1,17.5z M40.6,17.5c0-2.9,1.6-4.5,3.7-4.5c2.4,0,3.6,2.2,3.6,4.5c0,3.2-1.8,4.5-3.7,4.5
		C42.1,22.1,40.6,20.3,40.6,17.5z M53.2,17.5c0,3.8,2.7,6.6,6.7,6.6c1.8,0,3.5-0.6,4.9-1.8l-1-1.8c0,0-1.6,1.4-3.8,1.4
		c-2.3,0-4.2-1.5-4.4-4.3h9.3c0,0,0.1-0.6,0.1-0.9c0-3.3-1.9-5.9-5.5-5.9C55.9,10.9,53.2,13.5,53.2,17.5L53.2,17.5z M55.7,16.2
		c0.4-2.1,1.9-3.4,3.7-3.4c1.6,0,3,1.2,3,3.4H55.7z M74.4,23.9h2.3v-1c0-0.3,0-0.7-0.1-1h0.1c0.8,1.5,2.3,2.3,4,2.3
		c3.4,0,5.8-2.6,5.8-6.6c0-3.9-2.2-6.6-5.6-6.6c-3,0-4.1,2.2-4.1,2.2h-0.1c0.1-0.3,0.1-0.7,0.1-1V6.2h-4.6v1.9h2.1L74.4,23.9z
		 M76.8,17.6c0-3.2,1.8-4.6,3.7-4.6c2.1,0,3.6,1.8,3.6,4.5c0,2.9-1.7,4.5-3.6,4.5C78,22.1,76.8,19.8,76.8,17.6L76.8,17.6z
		 M88.6,26.5l-0.8,1.8c0.8,0.5,1.8,0.8,2.7,0.8c2,0,3.6-1.1,4.5-3.3l5-12.8h1.6v-1.9H96v1.9h1.6l-2.8,7.5c-0.1,0.4-0.2,0.7-0.3,1.1
		h-0.1c0-0.4-0.1-0.7-0.2-1.1l-2.8-7.5H93v-1.9h-5.8v1.9h1.6l4.4,11l-0.5,1.3c-0.4,1-1.3,1.8-2.3,1.8C89.8,27.1,89.1,26.9,88.6,26.5
		L88.6,26.5z"/>
	<g>
		<path class="st1" d="M298.6,24.1c0.8,0,1.4,0.6,1.4,1.3c0,0.8-0.6,1.4-1.3,1.4c-0.8,0-1.4-0.6-1.4-1.3c0,0,0,0,0,0
			C297.2,24.8,297.8,24.1,298.6,24.1L298.6,24.1z M298.6,26.6c0.6,0,1.1-0.4,1.2-1.1c0-0.6-0.4-1.1-1.1-1.2c-0.6,0-1.1,0.4-1.2,1.1
			c0,0,0,0,0,0.1C297.5,26.1,298,26.6,298.6,26.6L298.6,26.6L298.6,26.6z M298.1,24.8h0.5c0.2,0,0.4,0.1,0.5,0.4c0,0,0,0,0,0
			c0,0.2-0.1,0.3-0.3,0.4l0,0c0,0,0,0.1,0,0.1l0.3,0.5h-0.3l-0.3-0.5h-0.2v0.5h-0.3L298.1,24.8L298.1,24.8z M298.6,25.5
			c0.1,0,0.2-0.1,0.2-0.2c0,0,0,0,0-0.1c0-0.1-0.1-0.2-0.2-0.2c0,0,0,0,0,0h-0.2v0.5H298.6z"/>
		<path class="st2" d="M286.8,16.9c-0.8,3.8-2.8,7.2-5.6,9.9c4.5,3.3,10.3,4.1,15.5,2.4C295.6,23.7,291.9,19.1,286.8,16.9z"/>
		<path class="st3" d="M263,29.1c5.3,1.7,11,0.8,15.5-2.4c-2.9-2.6-4.8-6.1-5.6-9.9C267.8,19.1,264.1,23.7,263,29.1z"/>
		<path class="st1" d="M274.8,16.4c0.7,3.4,2.5,6.5,5.1,8.8c2.6-2.4,4.3-5.4,5-8.8C281.6,15.4,278.1,15.4,274.8,16.4z"/>
		<path class="st4" d="M279.9,0c-3.7,3.3-5.8,7.9-5.8,12.8c0,0.6,0,1.2,0.1,1.7c3.7-1.2,7.6-1.2,11.3,0c0.1-0.6,0.1-1.2,0.1-1.7
			C285.6,7.9,283.5,3.3,279.9,0z"/>
	</g>
</g>
</svg>
