<?xml version="1.0" encoding="utf-8"?>
<!-- Generator: Adobe Illustrator 24.0.1, SVG Export Plug-In . SVG Version: 6.00 Build 0)  -->
<svg version="1.1" id="Layer_1" xmlns="http://www.w3.org/2000/svg" xmlns:xlink="http://www.w3.org/1999/xlink" x="0px" y="0px"
	 viewBox="0 0 200 82.1" style="enable-background:new 0 0 200 82.1;" xml:space="preserve">
<style type="text/css">
	.st0{fill:#FFFFFF;}
</style>
<g>
	<g>
		<g>
			<path class="st0" d="M83.5,18.9c-3.3,0-5.9,2.6-5.9,5.9c0,3.3,2.6,5.9,5.9,5.9c3.3,0,5.9-2.6,5.9-5.9
				C89.4,21.5,86.8,18.9,83.5,18.9 M116.8,18.9c-3.3,0-5.9,2.6-5.9,5.9c0,3.3,2.6,5.9,5.9,5.9c3.3,0,5.9-2.6,5.9-5.9
				C122.7,21.5,120.1,18.9,116.8,18.9 M133.5,24.8c0,9.2-7.5,16.6-16.6,16.6c-4.4,0-8.3-1.7-11.3-4.4l-5.3,5.8L94.9,37
				c-3,2.8-6.9,4.4-11.3,4.4c-9.2,0-16.6-7.4-16.6-16.6c0-4.9,2.1-9.3,5.4-12.3l-5.4-5.9H79C85,2.4,92.3,0,100.2,0
				c7.9,0,15.2,2.4,21.2,6.5h12.1l-5.4,5.9C131.4,15.5,133.5,19.9,133.5,24.8 M94.8,24.8c0-6.2-5-11.3-11.3-11.3
				c-6.2,0-11.3,5-11.3,11.3c0,6.2,5,11.3,11.3,11.3C89.8,36,94.8,31,94.8,24.8 M112.7,7.9c-3.8-1.6-8.1-2.5-12.5-2.5
				c-4.4,0-8.6,0.9-12.5,2.5c7.1,2.7,12.5,9.1,12.5,16.5C100.2,17,105.6,10.7,112.7,7.9 M128.1,24.8c0-6.2-5-11.3-11.3-11.3
				s-11.3,5-11.3,11.3c0,6.2,5,11.3,11.3,11.3S128.1,31,128.1,24.8 M23.4,58.5V55H18v20.9h5.4V63.4c0-2.3,1.5-3.4,3.7-3.4h3v-5h-2.5
				C25.6,55,23.9,56,23.4,58.5 M35.1,46.7c-1.8,0-3.3,1.5-3.3,3.3c0,1.8,1.4,3.3,3.3,3.3c1.8,0,3.3-1.5,3.3-3.3
				C38.4,48.2,37,46.7,35.1,46.7 M32.5,75.9h5.4V55h-5.4V75.9z M63.5,65.4c0,6-4.8,10.8-10.8,10.8c-2.4,0-4.6-0.8-6.4-2.1v7.9h-5.4
				V55h5.4v1.8c1.8-1.3,3.9-2.1,6.4-2.1C58.6,54.6,63.5,59.5,63.5,65.4 M58.1,65.4c0-3.2-2.6-5.9-5.9-5.9c-3.2,0-5.9,2.6-5.9,5.9
				c0,3.2,2.6,5.9,5.9,5.9C55.4,71.3,58.1,68.7,58.1,65.4 M157.1,63.6l-3.1-0.9c-2.1-0.5-2.9-1.2-2.9-2.3c0-1.1,1.1-1.8,2.8-1.8
				c1.5,0,2.8,1,2.8,2.3v0.1h5V61c0-3.8-3.1-6.4-7.7-6.4c-4.6,0-7.9,2.6-7.9,6.1c0,2.7,1.8,4.8,5,5.7l3,0.8c2.3,0.6,3.1,1.3,3.1,2.6
				c0,1.3-1.2,2.2-3.1,2.2c-1.9,0-3.2-1.2-3.2-3v-0.1h-5.3V69c0,4.3,3.5,7.3,8.4,7.3c4.8,0,8.2-2.9,8.2-7
				C162.2,67.3,161.3,64.7,157.1,63.6 M82.6,55H88v20.9h-5.4v-1.8c-1.8,1.3-3.9,2.1-6.4,2.1c-6,0-10.8-4.8-10.8-10.8
				c0-6,4.8-10.8,10.8-10.8c2.4,0,4.6,0.8,6.4,2.1V55z M82.6,65.4L82.6,65.4c0-3.2-2.6-5.9-5.9-5.9c-3.2,0-5.9,2.6-5.9,5.9
				c0,3.2,2.6,5.9,5.9,5.9C79.9,71.3,82.6,68.7,82.6,65.4 M107.4,47.5h5.4v28.4h-5.4v-1.8c-1.8,1.3-3.9,2.1-6.4,2.1
				c-6,0-10.8-4.8-10.8-10.8c0-6,4.8-10.8,10.8-10.8c2.4,0,4.6,0.8,6.4,2.1V47.5z M107.4,65.4c0-3.2-2.6-5.9-5.9-5.9
				c-3.2,0-5.9,2.6-5.9,5.9c0,3.2,2.6,5.9,5.9,5.9C104.8,71.3,107.4,68.7,107.4,65.4 M137.8,75.9h5.4V55h-5.4V75.9z M140.5,46.7
				c-1.8,0-3.3,1.5-3.3,3.3c0,1.8,1.4,3.3,3.3,3.3c1.8,0,3.3-1.5,3.3-3.3C143.7,48.2,142.3,46.7,140.5,46.7 M185.4,65.4
				c0,6-4.8,10.8-10.8,10.8s-10.8-4.8-10.8-10.8c0-6,4.8-10.8,10.8-10.8S185.4,59.5,185.4,65.4 M180.5,65.4c0-3.2-2.6-5.9-5.9-5.9
				s-5.9,2.6-5.9,5.9c0,3.2,2.6,5.9,5.9,5.9S180.5,68.7,180.5,65.4 M20.7,47.5H0v4.8h7.6v23.6H13V52.3h7.6V47.5z M125.1,70.2
				L120.3,55h-5.7l7.2,20.9h6.5l7.2-20.9h-5.7L125.1,70.2z M193.3,58.5V55h-5.4v20.9h5.4V63.4c0-2.3,1.5-3.4,3.7-3.4h3v-5h-2.5
				C195.5,55,193.8,56,193.3,58.5"/>
		</g>
	</g>
</g>
</svg>
